<svg id="svg" version="1.1" xmlns="http://www.w3.org/2000/svg" xmlns:xlink="http://www.w3.org/1999/xlink" width="400" height="399.4152046783626" viewBox="0, 0, 400,399.4152046783626"><g id="svgg"><path id="path0" d="M194.737 55.685 C 134.990 58.867,85.007 95.500,64.590 151.072 C 60.582 161.981,56.533 180.171,56.530 187.281 L 56.530 187.914 100.663 187.914 L 144.795 187.914 145.035 186.891 C 151.774 158.117,179.760 139.301,208.869 143.974 C 230.938 147.516,249.070 164.044,254.596 185.654 L 255.240 188.170 300.278 188.028 C 325.049 187.950,345.333 187.871,345.352 187.851 C 345.604 187.599,344.068 176.843,343.064 171.832 C 329.121 102.219,264.921 51.947,194.737 55.685 " stroke="none" fill="#f81313" fill-rule="evenodd"></path><path id="path1" d="M196.693 166.670 C 171.976 169.253,158.755 196.900,172.271 217.739 C 186.347 239.441,219.006 237.181,230.026 213.743 C 240.867 190.686,221.989 164.026,196.693 166.670 M54.581 211.675 C 54.581 212.360,55.079 216.541,55.558 219.883 C 64.264 280.585,111.236 329.721,171.540 341.210 C 247.191 355.624,320.552 309.048,339.652 234.478 C 341.375 227.753,343.468 215.447,343.470 212.037 L 343.470 211.501 299.325 211.501 L 255.181 211.501 254.971 212.329 C 248.756 236.918,229.233 253.821,204.581 255.957 C 177.329 258.319,151.719 239.919,145.214 213.304 L 144.773 211.501 99.677 211.501 C 73.306 211.501,54.581 211.573,54.581 211.675 " stroke="none" fill="#f8f8f8" fill-rule="evenodd"></path><path id="path2" d="M192.885 27.883 C 97.656 31.721,23.549 112.811,28.267 208.012 C 33.126 306.050,118.463 379.996,216.179 370.843 C 304.375 362.582,371.890 288.430,371.928 199.785 C 371.969 101.919,290.750 23.939,192.885 27.883 M209.552 55.756 C 280.227 60.112,337.094 114.077,345.118 184.405 C 345.284 185.853,345.419 187.278,345.419 187.573 L 345.419 188.109 300.300 188.109 L 255.181 188.109 254.967 187.281 C 252.887 179.225,250.656 174.097,246.643 168.152 C 228.249 140.902,190.529 135.152,164.815 155.680 C 154.881 163.610,147.570 175.343,144.942 187.573 L 144.827 188.109 100.574 188.109 L 56.322 188.109 56.425 187.183 C 57.604 176.551,59.002 169.063,61.313 161.014 C 78.503 101.117,130.914 59.255,193.177 55.689 C 195.891 55.534,206.661 55.577,209.552 55.756 M204.429 166.762 C 230.022 170.400,242.020 200.436,225.891 220.488 C 211.558 238.306,183.673 236.562,171.763 217.102 C 158.945 196.161,172.029 169.546,196.589 166.600 C 198.129 166.416,202.647 166.509,204.429 166.762 M144.942 211.842 C 149.372 232.458,165.753 249.277,186.355 254.362 C 216.691 261.850,247.216 243.439,254.670 213.158 L 255.102 211.404 299.392 211.354 L 343.683 211.305 343.584 211.939 C 343.530 212.288,343.433 213.187,343.369 213.938 C 340.300 249.837,320.845 286.144,291.618 310.517 C 244.066 350.173,174.886 354.936,122.612 322.154 C 88.296 300.634,64.888 267.042,56.848 227.778 C 55.802 222.670,54.582 214.198,54.581 212.037 L 54.581 211.306 99.704 211.306 L 144.827 211.306 144.942 211.842 " stroke="none" fill="#040404" fill-rule="evenodd"></path><path id="path3" d="M194.493 55.693 C 194.734 55.740,195.129 55.740,195.370 55.693 C 195.612 55.647,195.414 55.609,194.932 55.609 C 194.449 55.609,194.252 55.647,194.493 55.693 M206.384 55.693 C 206.625 55.740,207.020 55.740,207.261 55.693 C 207.502 55.647,207.305 55.609,206.823 55.609 C 206.340 55.609,206.143 55.647,206.384 55.693 M101.840 94.591 L 101.267 95.224 101.901 94.652 C 102.249 94.337,102.534 94.052,102.534 94.018 C 102.534 93.868,102.373 94.000,101.840 94.591 M300.780 95.375 C 300.780 95.405,301.460 96.085,302.290 96.886 L 303.801 98.343 302.344 96.832 C 300.991 95.429,300.780 95.233,300.780 95.375 M305.166 99.805 C 305.802 100.448,306.367 100.975,306.421 100.975 C 306.474 100.975,305.997 100.448,305.361 99.805 C 304.724 99.162,304.159 98.635,304.106 98.635 C 304.052 98.635,304.529 99.162,305.166 99.805 M196.835 143.413 C 197.077 143.459,197.428 143.458,197.614 143.409 C 197.801 143.360,197.602 143.322,197.173 143.324 C 196.745 143.326,196.592 143.366,196.835 143.413 M202.388 143.409 C 202.576 143.458,202.883 143.458,203.070 143.409 C 203.258 143.360,203.104 143.320,202.729 143.320 C 202.354 143.320,202.200 143.360,202.388 143.409 M56.358 187.671 L 56.335 188.109 100.634 188.061 L 144.932 188.013 100.745 187.963 C 58.871 187.916,56.554 187.896,56.470 187.573 C 56.403 187.317,56.375 187.341,56.358 187.671 M317.300 188.060 C 322.473 188.089,330.938 188.089,336.111 188.060 C 341.284 188.031,337.052 188.008,326.706 188.008 C 316.360 188.008,312.127 188.031,317.300 188.060 M176.511 223.197 C 176.929 223.626,177.316 223.977,177.370 223.977 C 177.423 223.977,177.124 223.626,176.706 223.197 C 176.287 222.768,175.900 222.417,175.847 222.417 C 175.793 222.417,176.092 222.768,176.511 223.197 M197.515 256.080 C 197.702 256.129,198.009 256.129,198.197 256.080 C 198.385 256.031,198.231 255.991,197.856 255.991 C 197.481 255.991,197.327 256.031,197.515 256.080 " stroke="none" fill="#592424" fill-rule="evenodd"></path><path id="path4" d="M77.031 211.452 C 89.432 211.480,109.783 211.480,122.255 211.452 C 134.727 211.425,124.581 211.402,99.708 211.402 C 74.834 211.402,64.630 211.425,77.031 211.452 M271.053 211.451 C 313.695 211.584,343.665 211.584,343.665 211.452 C 343.665 211.372,323.731 211.327,299.366 211.354 C 275.002 211.380,262.261 211.424,271.053 211.451 M199.269 232.891 C 199.671 232.933,200.329 232.933,200.731 232.891 C 201.133 232.848,200.804 232.814,200.000 232.814 C 199.196 232.814,198.867 232.848,199.269 232.891 M303.704 299.123 C 303.230 299.605,302.887 300.000,302.940 300.000 C 302.994 300.000,303.425 299.605,303.899 299.123 C 304.372 298.640,304.716 298.246,304.662 298.246 C 304.608 298.246,304.177 298.640,303.704 299.123 M94.347 299.318 C 94.711 299.693,95.052 300.000,95.106 300.000 C 95.159 300.000,94.906 299.693,94.542 299.318 C 94.178 298.942,93.837 298.635,93.783 298.635 C 93.730 298.635,93.983 298.942,94.347 299.318 M299.114 303.752 L 298.343 304.581 299.172 303.810 C 299.942 303.094,300.090 302.924,299.942 302.924 C 299.910 302.924,299.537 303.297,299.114 303.752 " stroke="none" fill="#747474" fill-rule="evenodd"></path></g></svg>